<svg width="32" height="32" viewBox="0 0 32 32" fill="none" xmlns="http://www.w3.org/2000/svg">
<path d="M25.3333 14.6669H10.44L16.9467 8.16021C17.4667 7.64021 17.4667 6.78688 16.9467 6.26688C16.8233 6.14327 16.6768 6.04521 16.5155 5.9783C16.3542 5.91139 16.1813 5.87695 16.0067 5.87695C15.832 5.87695 15.6591 5.91139 15.4978 5.9783C15.3365 6.04521 15.19 6.14327 15.0667 6.26688L6.28 15.0535C6.1564 15.1769 6.05833 15.3234 5.99142 15.4847C5.92452 15.646 5.89008 15.8189 5.89008 15.9935C5.89008 16.1682 5.92452 16.3411 5.99142 16.5024C6.05833 16.6637 6.1564 16.8102 6.28 16.9335L15.0667 25.7202C15.1901 25.8437 15.3367 25.9416 15.4979 26.0084C15.6592 26.0752 15.8321 26.1096 16.0067 26.1096C16.1812 26.1096 16.3541 26.0752 16.5154 26.0084C16.6767 25.9416 16.8232 25.8437 16.9467 25.7202C17.0701 25.5968 17.168 25.4502 17.2348 25.2889C17.3016 25.1277 17.336 24.9548 17.336 24.7802C17.336 24.6056 17.3016 24.4328 17.2348 24.2715C17.168 24.1102 17.0701 23.9637 16.9467 23.8402L10.44 17.3335H25.3333C26.0667 17.3335 26.6667 16.7335 26.6667 16.0002C26.6667 15.2669 26.0667 14.6669 25.3333 14.6669Z" fill="black"/>
</svg>
