<svg width="16" height="16" viewBox="0 0 16 16" fill="none" xmlns="http://www.w3.org/2000/svg">
<g id="ArrowLineLeft2">
<path id="Vector 1 (Stroke)" fill-rule="evenodd" clip-rule="evenodd" d="M8.47149 11.8047C8.21114 12.0651 7.78903 12.0651 7.52868 11.8047L4.19534 8.4714C3.93499 8.21105 3.93499 7.78894 4.19534 7.52859L7.52868 4.19526C7.78903 3.93491 8.21114 3.93491 8.47149 4.19526C8.73184 4.45561 8.73184 4.87772 8.47149 5.13807L5.60956 8L8.47149 10.8619C8.73184 11.1223 8.73184 11.5444 8.47149 11.8047Z" fill="white"/>
<path id="Vector 1 (Stroke)_2" fill-rule="evenodd" clip-rule="evenodd" d="M12.8251 11.8047C12.5647 12.0651 12.1426 12.0651 11.8822 11.8047L8.54891 8.4714C8.28856 8.21105 8.28856 7.78894 8.54891 7.52859L11.8822 4.19526C12.1426 3.93491 12.5647 3.93491 12.8251 4.19526C13.0854 4.45561 13.0854 4.87772 12.8251 5.13807L9.96312 8L12.8251 10.8619C13.0854 11.1223 13.0854 11.5444 12.8251 11.8047Z" fill="white"/>
</g>
</svg>
