<svg width="16" height="16" viewBox="0 0 16 16" fill="none" xmlns="http://www.w3.org/2000/svg">
<g id="ArrowLineLeft2">
<path id="Vector 1 (Stroke)" fill-rule="evenodd" clip-rule="evenodd" d="M8.54878 11.8047C8.80913 12.0651 9.23124 12.0651 9.49159 11.8047L12.8249 8.4714C13.0853 8.21105 13.0853 7.78894 12.8249 7.52859L9.49159 4.19526C9.23124 3.93491 8.80913 3.93491 8.54878 4.19526C8.28843 4.45561 8.28843 4.87772 8.54878 5.13807L11.4107 8L8.54878 10.8619C8.28843 11.1223 8.28843 11.5444 8.54878 11.8047Z" fill="white"/>
<path id="Vector 1 (Stroke)_2" fill-rule="evenodd" clip-rule="evenodd" d="M4.19521 11.8047C4.45556 12.0651 4.87767 12.0651 5.13802 11.8047L8.47135 8.4714C8.7317 8.21105 8.7317 7.78894 8.47135 7.52859L5.13802 4.19526C4.87767 3.93491 4.45556 3.93491 4.19521 4.19526C3.93486 4.45561 3.93486 4.87772 4.19521 5.13807L7.05714 8L4.19521 10.8619C3.93486 11.1223 3.93486 11.5444 4.19521 11.8047Z" fill="white"/>
</g>
</svg>
