<svg width="12" height="12" viewBox="0 0 12 12" fill="none" xmlns="http://www.w3.org/2000/svg">
<path d="M1.45457 6.79607C1.35009 6.6916 1.2672 6.56758 1.21065 6.43107C1.15411 6.29457 1.125 6.14826 1.125 6.00051C1.125 5.85276 1.15411 5.70645 1.21065 5.56995C1.2672 5.43344 1.35009 5.30942 1.45457 5.20495L5.20495 1.45457C5.30942 1.35009 5.43344 1.2672 5.56995 1.21065C5.70645 1.15411 5.85276 1.125 6.00051 1.125C6.14826 1.125 6.29457 1.15411 6.43107 1.21065C6.56758 1.2672 6.6916 1.35009 6.79607 1.45457L10.5464 5.20495C10.6509 5.30942 10.7338 5.43344 10.7904 5.56995C10.8469 5.70645 10.876 5.85276 10.876 6.00051C10.876 6.14826 10.8469 6.29457 10.7904 6.43107C10.7338 6.56758 10.6509 6.6916 10.5464 6.79607L6.79607 10.5464C6.6916 10.6509 6.56758 10.7338 6.43107 10.7904C6.29457 10.8469 6.14826 10.876 6.00051 10.876C5.85276 10.876 5.70645 10.8469 5.56995 10.7904C5.43344 10.7338 5.30942 10.6509 5.20495 10.5464L1.45457 6.79607ZM1.98482 5.7352C1.94996 5.77002 1.9223 5.81138 1.90342 5.85691C1.88455 5.90243 1.87484 5.95123 1.87484 6.00051C1.87484 6.04979 1.88455 6.09859 1.90342 6.14411C1.9223 6.18964 1.94996 6.23099 1.98482 6.26582L5.7352 10.0158C5.80552 10.0861 5.90089 10.1256 6.00032 10.1256C6.09976 10.1256 6.19512 10.0861 6.26545 10.0158L10.0162 6.26582C10.0511 6.23099 10.0787 6.18964 10.0976 6.14411C10.1165 6.09859 10.1262 6.04979 10.1262 6.00051C10.1262 5.95123 10.1165 5.90243 10.0976 5.85691C10.0787 5.81138 10.0511 5.77002 10.0162 5.7352L6.26545 1.98482C6.19512 1.91452 6.09976 1.87503 6.00032 1.87503C5.90089 1.87503 5.80552 1.91452 5.7352 1.98482L1.98482 5.7352Z" fill="white"/>
</svg>
