<svg width="24" height="24" viewBox="0 0 24 24" fill="none" xmlns="http://www.w3.org/2000/svg">
<g clip-path="url(#clip0_576_33658)">
<path d="M12.0859 6.49595H12.0509C11.1282 6.49489 10.2362 6.8269 9.53885 7.43095L9.54385 7.42695C9.16204 7.71113 8.85441 8.08322 8.64707 8.51165C8.43974 8.94008 8.33881 9.4122 8.35285 9.88795V9.88395H10.4259C10.4098 9.66827 10.4469 9.45195 10.5341 9.25402C10.6213 9.0561 10.7558 8.88265 10.9259 8.74895L10.9289 8.74695C11.2109 8.47695 11.5939 8.30995 12.0159 8.30995H12.0169L12.0919 8.30795C12.4749 8.30795 12.8229 8.46095 13.0769 8.70995C13.3319 8.96695 13.4889 9.32095 13.4889 9.71095L13.4879 9.75695V9.75495L13.4889 9.79795C13.4889 10.19 13.3389 10.548 13.0929 10.815L13.0939 10.814L11.8469 12.065C11.6072 12.3116 11.4216 12.6055 11.3019 12.928L11.2959 12.945C11.1869 13.167 11.2959 13.505 11.2959 13.963V14.824H12.7079V14.235C12.7169 13.828 12.8699 13.458 13.1189 13.174L13.1169 13.176C13.1969 13.085 13.3519 12.973 13.4839 12.842C13.6159 12.711 13.8039 12.556 13.9889 12.379C14.1739 12.202 14.3419 12.059 14.4559 11.942C14.6269 11.764 14.7919 11.574 14.9459 11.376L14.9579 11.36C15.3275 10.8988 15.5283 10.325 15.5269 9.73395L15.5249 9.64195V9.64595C15.5488 9.21266 15.4752 8.77952 15.3094 8.37849C15.1436 7.97746 14.8898 7.61879 14.5669 7.32895L14.5639 7.32695C13.8661 6.75143 12.9793 6.45595 12.0759 6.49795H12.0839L12.0859 6.49595ZM11.9579 15.632H11.9399C11.5859 15.632 11.2649 15.776 11.0329 16.009C10.9109 16.1222 10.8136 16.2595 10.7472 16.4121C10.6808 16.5648 10.6466 16.7295 10.6469 16.896V16.909V16.92C10.6469 17.269 10.7989 17.582 11.0399 17.798L11.0409 17.799C11.2779 18.026 11.5999 18.166 11.9549 18.166H11.9749H11.9739H11.9929C12.3469 18.166 12.6679 18.022 12.8989 17.79C13.1369 17.567 13.2849 17.251 13.2849 16.901V16.88C13.2849 16.531 13.1329 16.217 12.8919 16.001L12.8909 16C12.6462 15.7634 12.3191 15.6314 11.9789 15.632H11.9569H11.9579Z" fill="white"/>
<path d="M12 0C5.373 0 0 5.373 0 12C0 18.627 5.373 24 12 24C18.627 24 24 18.627 24 12C24 5.373 18.627 0 12 0ZM12 21.882C6.542 21.882 2.118 17.457 2.118 12C2.118 6.543 6.543 2.118 12 2.118C17.458 2.118 21.882 6.543 21.882 12C21.882 17.458 17.457 21.882 12 21.882Z" fill="white"/>
</g>
<defs>
<clipPath id="clip0_576_33658">
<rect width="24" height="24" fill="white"/>
</clipPath>
</defs>
</svg>
