<svg width="24" height="24" viewBox="0 0 24 24" fill="none" xmlns="http://www.w3.org/2000/svg">
<path d="M21.1797 14.5H20.2422L19.5781 6.84375C19.5521 6.19271 19.2982 5.63932 18.8164 5.18359C18.3346 4.72786 17.7812 4.5 17.1562 4.5H12.8203V2.82031C12.8203 2.27344 12.5469 2 12 2C11.4531 2 11.1797 2.27344 11.1797 2.82031V4.5H6.84375C6.21875 4.5 5.66536 4.72786 5.18359 5.18359C4.70182 5.63932 4.44792 6.19271 4.42188 6.84375L3.75781 14.5H2.82031C2.58594 14.5 2.39062 14.5781 2.23438 14.7344C2.07812 14.8906 2 15.0859 2 15.3203C2 15.5807 2.07812 15.7891 2.23438 15.9453C2.39062 16.1016 2.58594 16.1797 2.82031 16.1797H5.90625L4.5 20.9062C4.42188 21.1146 4.44792 21.3229 4.57812 21.5312C4.70833 21.7396 4.8776 21.8698 5.08594 21.9219H5.32031C5.65885 21.9219 5.94531 21.7266 6.17969 21.3359L7.66406 16.1797H11.1797V19.5C11.1797 20.0469 11.4531 20.3203 12 20.3203C12.5469 20.3203 12.8203 20.0469 12.8203 19.5V16.1797H16.3359L17.8203 21.4141C17.8984 21.8047 18.1849 22 18.6797 22H18.9141C19.4089 21.8177 19.6042 21.4792 19.5 20.9844L18.0938 16.1797H21.1797C21.4141 16.1797 21.6094 16.1016 21.7656 15.9453C21.9219 15.7891 22 15.5807 22 15.3203C22 15.0859 21.9219 14.8906 21.7656 14.7344C21.6094 14.5781 21.4141 14.5 21.1797 14.5ZM5.39844 14.5L6.10156 6.92188C6.10156 6.71354 6.1862 6.53776 6.35547 6.39453C6.52474 6.2513 6.71354 6.17969 6.92188 6.17969H17.1562C17.3906 6.17969 17.5924 6.2513 17.7617 6.39453C17.931 6.53776 18.0156 6.71354 18.0156 6.92188L18.6797 14.5H5.39844Z" fill="white"/>
</svg>
