<svg width="23" height="22" viewBox="0 0 23 22" fill="none" xmlns="http://www.w3.org/2000/svg">
<path d="M15.2748 20.6009C15.2748 20.3307 15.2748 19.7904 14.9455 18.9798C14.6405 18.2289 13.3244 15.7376 12.9191 13.7112C12.7454 12.8428 12.9517 12.1682 13.2637 11.6875C13.6045 11.1622 14.307 11.4396 14.6846 11.939C15.3004 12.7533 16.4165 13.5273 18.1878 13.3059C18.3229 13.7112 18.7552 14.6028 19.4036 14.927C20.2142 15.3323 21.7593 14.9271 21.43 13.3059C21.2949 12.9006 20.8677 12.0091 20.5435 11.6849C20.1382 11.2796 18.593 7.49689 17.7825 5.60559V2.7865C17.7825 2.25607 17.5181 1.6997 16.9982 1.80487C16.8677 1.83125 16.7235 1.87964 16.5667 1.95807C15.7561 2.36335 14.9455 3.17391 14.5403 3.98447C14.216 4.63292 14.135 5.06522 14.135 5.20031M14.135 5.20031L14.0837 3.28673C14.0698 2.76537 13.6576 2.33698 13.1372 2.37048C10.4894 2.54091 6.53842 4.03034 3.92704 9.25311C1.61672 13.8737 1.45661 17.6881 1.47679 19.6017C1.48262 20.1539 1.94308 20.601 2.49537 20.601L3.33942 20.601C3.91787 20.6009 4.37618 20.1125 4.37585 19.5341C4.37449 17.1758 4.77612 13.2332 6.43467 10.4689C8.86635 6.41615 11.298 5.20031 14.135 5.20031Z" stroke="white" stroke-width="1.7" stroke-linecap="round"/>
<ellipse cx="15.8106" cy="8.81056" rx="0.810559" ry="0.810559" fill="white"/>
</svg>
