<svg width="24" height="24" viewBox="0 0 24 24" fill="none" xmlns="http://www.w3.org/2000/svg">
<path d="M7.42256 5.04105C7.94174 4.75755 8.5004 4.66713 9.04471 4.66713C9.67395 4.66713 10.4061 4.87853 10.9958 5.3722C11.6155 5.89032 12.0354 6.6846 12.0354 7.72082C12.0354 8.91224 11.2112 9.55867 10.747 9.92281L10.6453 10.0035C10.1381 10.4104 9.94191 10.6279 9.94191 11.0812C9.94191 11.3243 9.84739 11.5574 9.67913 11.7293C9.51087 11.9012 9.28266 11.9977 9.04471 11.9977C8.80675 11.9977 8.57855 11.9012 8.41029 11.7293C8.24203 11.5574 8.1475 11.3243 8.1475 11.0812C8.1475 9.69553 8.99805 8.99412 9.53757 8.56154C10.1513 8.06909 10.241 7.95911 10.241 7.72082C10.241 7.2357 10.0627 6.96076 9.85818 6.79091C9.62647 6.6045 9.34083 6.5018 9.04591 6.49886C8.693 6.49886 8.45016 6.55873 8.26833 6.65771C8.09726 6.75058 7.91662 6.91433 7.74197 7.24426C7.62854 7.45815 7.43658 7.61726 7.20831 7.68659C6.98004 7.75591 6.73416 7.72976 6.52476 7.6139C6.31536 7.49804 6.15959 7.30196 6.09173 7.06878C6.02386 6.83561 6.04946 6.58445 6.16288 6.37055C6.4787 5.77667 6.895 5.32821 7.42376 5.03983L7.42256 5.04105ZM9.04471 15.6636C9.36198 15.6636 9.66626 15.5349 9.8906 15.3057C10.1149 15.0765 10.241 14.7657 10.241 14.4416C10.241 14.1176 10.1149 13.8068 9.8906 13.5776C9.66626 13.3484 9.36198 13.2197 9.04471 13.2197C8.72744 13.2197 8.42316 13.3484 8.19882 13.5776C7.97447 13.8068 7.84843 14.1176 7.84843 14.4416C7.84843 14.7657 7.97447 15.0765 8.19882 15.3057C8.42316 15.5349 8.72744 15.6636 9.04471 15.6636ZM9.04471 1C7.53561 0.999741 6.05083 1.38831 4.72776 2.12976C3.40469 2.87121 2.28609 3.94157 1.47546 5.2418C0.664829 6.54203 0.188367 8.03012 0.0901625 9.56837C-0.00804168 11.1066 0.275185 12.6453 0.913634 14.0421L0.0463356 17.5149C-0.0173231 17.77 -0.0153572 18.0376 0.0520425 18.2917C0.119442 18.5458 0.249988 18.7777 0.431015 18.9651C0.612042 19.1525 0.837406 19.2889 1.08524 19.3611C1.33308 19.4333 1.59498 19.4388 1.84553 19.3772C2.74274 19.1572 4.12204 18.8187 5.35181 18.5194C6.57167 19.0813 7.89913 19.3573 9.23697 19.3273C10.5748 19.2973 11.8891 18.962 13.0837 18.346C14.2782 17.7299 15.3227 16.8487 16.1407 15.7669C16.9587 14.6851 17.5294 13.4301 17.8111 12.0939C18.0927 10.7576 18.0782 9.3739 17.7686 8.0441C17.4589 6.7143 16.862 5.47209 16.0215 4.40846C15.1811 3.34482 14.1183 2.48669 12.9111 1.89693C11.7039 1.30717 10.3829 1.00071 9.04471 1ZM1.86706 10.1648C1.86754 8.57046 2.37674 7.01976 3.31752 5.74763C4.25831 4.47551 5.57939 3.55129 7.0806 3.11502C8.5818 2.67875 10.1813 2.7542 11.6368 3.32995C13.0922 3.90571 14.3243 4.95037 15.1463 6.30565C15.9683 7.66094 16.3354 9.25298 16.192 10.8405C16.0486 12.4281 15.4025 13.9247 14.3517 15.1034C13.3008 16.2822 11.9024 17.079 10.3684 17.373C8.83441 17.6671 7.24838 17.4423 5.85066 16.7328L5.55996 16.585L5.24295 16.662L1.90774 17.477C2.14699 16.5239 2.46042 15.2628 2.73317 14.1679L2.81691 13.8307L2.66139 13.5215C2.13788 12.4835 1.86469 11.3324 1.86706 10.1648ZM15.0261 22.9954C12.7629 22.9986 10.5828 22.1253 8.92508 20.5515H9.04471C9.90363 20.5515 10.7374 20.4427 11.5342 20.2374C12.5677 20.8264 13.7592 21.1625 15.0273 21.1625C16.1757 21.1625 17.2595 20.8875 18.2213 20.3987L18.5108 20.2509L18.8278 20.3279C19.9308 20.5967 21.1785 20.8716 22.1056 21.0733C21.8588 19.9912 21.6027 18.9114 21.3376 17.8338L21.2539 17.4966L21.4094 17.1874C21.9333 16.1495 22.2057 14.9984 22.2037 13.8307C22.2043 12.6049 21.9038 11.3985 21.3297 10.3221C20.7556 9.24567 19.9262 8.33362 18.9176 7.6695C18.7066 6.79667 18.3849 5.95575 17.9605 5.16813C19.1481 5.58819 20.2361 6.25831 21.1541 7.13513C22.072 8.01194 22.7995 9.07589 23.2893 10.2581C23.7792 11.4403 24.0206 12.7144 23.9978 13.998C23.975 15.2815 23.6886 16.5459 23.1572 17.7092C23.4598 18.9409 23.7673 20.2753 23.9611 21.1344C24.0179 21.3834 24.0124 21.643 23.945 21.8892C23.8776 22.1355 23.7505 22.3604 23.5754 22.5431C23.4003 22.7259 23.183 22.8605 22.9434 22.9347C22.7038 23.0088 22.4499 23.0201 22.2049 22.9673C21.0405 22.72 19.8788 22.4593 18.7202 22.1853C17.5593 22.721 16.2999 22.9972 15.0261 22.9954Z" fill="white"/>
</svg>
