<svg width="32" height="32" viewBox="0 0 32 32" fill="none" xmlns="http://www.w3.org/2000/svg">
<g id="ic:round-arrow-back">
<path id="Vector" d="M25.3334 14.6666H10.4401L16.9467 8.15997C17.4667 7.63997 17.4667 6.78663 16.9467 6.26663C16.8234 6.14303 16.6769 6.04497 16.5156 5.97806C16.3543 5.91115 16.1814 5.87671 16.0067 5.87671C15.8321 5.87671 15.6592 5.91115 15.4979 5.97806C15.3366 6.04497 15.1901 6.14303 15.0667 6.26663L6.28006 15.0533C6.15646 15.1767 6.05839 15.3232 5.99149 15.4845C5.92458 15.6458 5.89014 15.8187 5.89014 15.9933C5.89014 16.1679 5.92458 16.3408 5.99149 16.5021C6.05839 16.6634 6.15646 16.8099 6.28006 16.9333L15.0667 25.72C15.1902 25.8434 15.3367 25.9413 15.498 26.0081C15.6593 26.0749 15.8322 26.1093 16.0067 26.1093C16.1813 26.1093 16.3542 26.0749 16.5155 26.0081C16.6767 25.9413 16.8233 25.8434 16.9467 25.72C17.0702 25.5965 17.1681 25.45 17.2349 25.2887C17.3017 25.1274 17.3361 24.9545 17.3361 24.78C17.3361 24.6054 17.3017 24.4325 17.2349 24.2712C17.1681 24.11 17.0702 23.9634 16.9467 23.84L10.4401 17.3333H25.3334C26.0667 17.3333 26.6667 16.7333 26.6667 16C26.6667 15.2666 26.0667 14.6666 25.3334 14.6666Z" fill="black"/>
</g>
</svg>
