<svg width="100" height="48" viewBox="0 0 100 48" fill="none" xmlns="http://www.w3.org/2000/svg">
<path d="M4 12C1.79375 12 0 13.7938 0 16V32C0 34.2062 1.79375 36 4 36H32C34.2062 36 36 34.2062 36 32V16C36 13.7938 34.2062 12 32 12H4ZM8 32H4V28C6.20625 28 8 29.7938 8 32ZM4 20V16H8C8 18.2063 6.20625 20 4 20ZM28 32C28 29.7938 29.7938 28 32 28V32H28ZM32 20C29.7938 20 28 18.2063 28 16H32V20ZM18 18C19.5913 18 21.1174 18.6321 22.2426 19.7574C23.3679 20.8826 24 22.4087 24 24C24 25.5913 23.3679 27.1174 22.2426 28.2426C21.1174 29.3679 19.5913 30 18 30C16.4087 30 14.8826 29.3679 13.7574 28.2426C12.6321 27.1174 12 25.5913 12 24C12 22.4087 12.6321 20.8826 13.7574 19.7574C14.8826 18.6321 16.4087 18 18 18Z" fill="#4504A8"/>
<path d="M52 6C48.6906 6 46 8.69063 46 12V36C46 39.3094 48.6906 42 52 42H94C97.3094 42 100 39.3094 100 36V12C100 8.69063 97.3094 6 94 6H52ZM58 36H52V30C55.3094 30 58 32.6906 58 36ZM52 18V12H58C58 15.3094 55.3094 18 52 18ZM88 36C88 32.6906 90.6906 30 94 30V36H88ZM94 18C90.6906 18 88 15.3094 88 12H94V18ZM73 15C75.3869 15 77.6761 15.9482 79.364 17.636C81.0518 19.3239 82 21.6131 82 24C82 26.3869 81.0518 28.6761 79.364 30.364C77.6761 32.0518 75.3869 33 73 33C70.6131 33 68.3239 32.0518 66.636 30.364C64.9482 28.6761 64 26.3869 64 24C64 21.6131 64.9482 19.3239 66.636 17.636C68.3239 15.9482 70.6131 15 73 15Z" fill="#8D5FC6"/>
</svg>
