<svg width="24" height="24" viewBox="0 0 24 24" fill="currentColor" xmlns="http://www.w3.org/2000/svg">
<path d="M9.575 14.175L15.475 8.275C15.6583 8.09167 15.8917 8 16.175 8C16.4583 8 16.6917 8.09167 16.875 8.275C17.0583 8.45833 17.15 8.69167 17.15 8.975C17.15 9.25833 17.0583 9.49167 16.875 9.675L10.275 16.275C10.075 16.475 9.84167 16.575 9.575 16.575C9.30833 16.575 9.075 16.475 8.875 16.275L6.275 13.675C6.09167 13.4917 6 13.2583 6 12.975C6 12.6917 6.09167 12.4583 6.275 12.275C6.45833 12.0917 6.69167 12 6.975 12C7.25833 12 7.49167 12.0917 7.675 12.275L9.575 14.175Z" fill="currentColor"/>
</svg>
