<svg width="14" height="15" viewBox="0 0 14 15" fill="none" xmlns="http://www.w3.org/2000/svg">
<g clip-path="url(#clip0_674_7458)">
<path d="M10.6204 11.1996C10.2677 10.9426 9.81105 10.877 9.4009 11.0246C8.67629 11.2871 7.86418 11.4375 7.00012 11.4375C3.59035 11.4375 1.31262 9.23633 1.31262 7.0625C1.31262 4.88867 3.59035 2.6875 7.00012 2.6875C10.4099 2.6875 12.6876 4.88867 12.6876 7.0625C12.6876 7.9375 12.3486 8.77969 11.7114 9.50156C11.4763 9.7668 11.3614 10.1168 11.3888 10.4723C11.4271 10.9672 11.5446 11.4211 11.6978 11.823C11.2329 11.607 10.8474 11.3664 10.6204 11.2023V11.1996ZM13.4204 12.3098C13.3712 12.2359 13.3247 12.1621 13.281 12.0883C13.0075 11.6344 12.7478 11.0383 12.6958 10.3684C13.5161 9.43594 14.0001 8.2957 14.0001 7.0625C14.0001 3.9207 10.8665 1.375 7.00012 1.375C3.13371 1.375 0.000117302 3.9207 0.000117302 7.0625C0.000117302 10.2043 3.13371 12.75 7.00012 12.75C8.01457 12.75 8.97707 12.575 9.8466 12.2605C10.172 12.4984 10.7025 12.8238 11.3314 13.0973C11.7443 13.2777 12.2146 13.4418 12.7013 13.5375C12.7232 13.543 12.745 13.5457 12.7669 13.5512C12.8872 13.573 13.0048 13.5922 13.1279 13.6031C13.1333 13.6031 13.1415 13.6059 13.147 13.6059C13.2864 13.6195 13.4259 13.6277 13.5654 13.6277C13.7431 13.6277 13.9017 13.5211 13.97 13.357C14.0384 13.193 14.0001 13.007 13.8771 12.8812C13.765 12.7664 13.6638 12.6434 13.5681 12.5121C13.5216 12.4492 13.4779 12.3863 13.4368 12.3234C13.4341 12.318 13.4314 12.3152 13.4286 12.3098H13.4204Z" fill="white" fill-opacity="0.8"/>
</g>
<defs>
<clipPath id="clip0_674_7458">
<rect width="14" height="14" fill="white" transform="matrix(-1 0 0 1 14 0.5)"/>
</clipPath>
</defs>
</svg>
