<svg width="48" height="48" viewBox="0 0 48 48" fill="none" xmlns="http://www.w3.org/2000/svg">
<rect x="1" y="1" width="46" height="46" rx="23" fill="#180227"/>
<path d="M14.0498 25H19.5268C19.6978 28.1672 20.7072 31.2321 22.4518 33.881C20.2666 33.538 18.2566 32.4804 16.7362 30.8738C15.2159 29.2671 14.2708 27.2018 14.0488 25.001L14.0498 25ZM14.0498 23C14.2717 20.7993 15.2167 18.7342 16.7368 17.1275C18.257 15.5208 20.2668 14.4632 22.4518 14.12C20.7074 16.7686 19.6979 19.8331 19.5268 23H14.0498ZM33.9498 23H28.4728C28.3017 19.8331 27.2923 16.7686 25.5478 14.12C27.7329 14.4632 29.7426 15.5208 31.2628 17.1275C32.783 18.7342 33.7279 20.7993 33.9498 23ZM33.9498 25C33.7281 27.2009 32.7833 29.2662 31.2631 30.8731C29.7429 32.48 27.733 33.5377 25.5478 33.881C27.2923 31.2324 28.3017 28.1679 28.4728 25.001H33.9508L33.9498 25ZM21.5298 25H26.4698C26.3052 27.6995 25.4551 30.3124 23.9998 32.592C22.5445 30.3124 21.6944 27.6995 21.5298 25ZM21.5298 23C21.6948 20.3012 22.5449 17.689 23.9998 15.41C25.4548 17.689 26.3049 20.3012 26.4698 23H21.5298Z" fill="white"/>
<rect x="1" y="1" width="46" height="46" rx="23" stroke="white" stroke-width="2"/>
</svg>
