<svg width="128" height="128" viewBox="0 0 128 128" fill="none" xmlns="http://www.w3.org/2000/svg">
<circle cx="64" cy="64" r="64" fill="url(#paint0_linear_1621_64134)" fill-opacity="0.58"/>
<path d="M99.3411 68.521L49.0676 98.8914C48.4874 99.2417 47.8085 99.4468 47.1043 99.4846C46.4001 99.5223 45.6975 99.3912 45.0725 99.1055C44.4476 98.8198 43.9241 98.3904 43.5588 97.8637C43.1935 97.337 43.0002 96.7332 43 96.1175V35.3767C42.9995 34.7608 43.1923 34.1565 43.5573 33.6294C43.9223 33.1022 44.4457 32.6723 45.0708 32.3862C45.6959 32.1001 46.3988 31.9687 47.1033 32.0063C47.8079 32.0439 48.4872 32.2491 49.0676 32.5995L99.3411 62.9699C99.8532 63.2818 100.272 63.6971 100.56 64.1803C100.849 64.6635 101 65.2004 101 65.7454C101 66.2904 100.849 66.8274 100.56 67.3106C100.272 67.7938 99.8532 68.2091 99.3411 68.521Z" fill="url(#paint1_linear_1621_64134)"/>
<defs>
<linearGradient id="paint0_linear_1621_64134" x1="64" y1="0" x2="64" y2="128" gradientUnits="userSpaceOnUse">
<stop stop-color="#818181"/>
<stop offset="1" stop-color="#929292"/>
</linearGradient>
<linearGradient id="paint1_linear_1621_64134" x1="72" y1="32" x2="72" y2="99.4909" gradientUnits="userSpaceOnUse">
<stop stop-color="white"/>
<stop offset="1" stop-color="#D9D9D9"/>
</linearGradient>
</defs>
</svg>
