<svg width="24" height="22" viewBox="0 0 24 22" fill="none" xmlns="http://www.w3.org/2000/svg">
<path d="M3.23378 16.8397C5.5099 16.8397 7.32465 15.9631 8.67801 14.2099C8.67801 14.0869 8.60112 13.9792 8.44733 13.8869L7.57071 12.1337C7.17085 12.9642 6.57876 13.6332 5.79442 14.1407C5.01008 14.6482 4.15653 14.902 3.23378 14.902H0.97304C0.726972 14.902 0.503974 15.0019 0.304045 15.2019C0.104115 15.4018 0.00415039 15.6248 0.00415039 15.8708C0.00415039 16.1169 0.104115 16.3399 0.304045 16.5398C0.503974 16.7398 0.726972 16.8397 0.97304 16.8397H3.23378ZM20.397 0.41476C19.9048 -0.0158575 19.4435 -0.0158575 19.0128 0.41476C18.5515 0.876136 18.5515 1.33751 19.0128 1.79889L20.2585 3.09074H16.4291C14.1838 3.09074 12.3844 3.96735 11.031 5.72058C11.031 5.81286 11.0925 5.92051 11.2156 6.04354L12.0922 7.79677C12.4921 6.9663 13.0842 6.2973 13.8685 5.78979C14.6528 5.28227 15.5064 5.02852 16.4291 5.02852H20.2585L19.0128 6.32037C18.5515 6.78175 18.5515 7.24312 19.0128 7.7045C19.1974 7.88905 19.4281 7.98132 19.7049 7.98132C19.9202 7.98132 20.1509 7.88905 20.397 7.7045L23.3498 4.75169C23.7496 4.29032 23.7496 3.82894 23.3498 3.36756L20.397 0.41476ZM20.397 12.226C19.9048 11.7954 19.4435 11.7954 19.0128 12.226C18.5515 12.6874 18.5515 13.1487 19.0128 13.6101L20.2585 14.902H16.4291C15.5064 14.902 14.6451 14.6482 13.8454 14.1407C13.0457 13.6332 12.4305 12.9642 11.9999 12.1337L10.9388 9.96524L9.83145 7.79677L9.37008 6.92016C8.81643 5.75134 7.98595 4.8209 6.87865 4.12884C5.77135 3.43677 4.55639 3.09074 3.23378 3.09074H0.97304C0.726972 3.09074 0.503974 3.1907 0.304045 3.39063C0.104115 3.59056 0.00415039 3.81356 0.00415039 4.05963C0.00415039 4.3057 0.104115 4.52869 0.304045 4.72862C0.503974 4.92855 0.726972 5.02852 0.97304 5.02852H3.23378C5.20232 5.02852 6.67872 5.95127 7.66299 7.79677L8.77029 9.96524L9.83145 12.1337L10.339 13.0103C10.9541 14.1791 11.8077 15.1096 12.8996 15.8016C13.9915 16.4937 15.1988 16.8397 16.5214 16.8397H20.397L19.1051 18.1316C18.6437 18.593 18.6437 19.0543 19.1051 19.5157C19.2897 19.7003 19.5203 19.7925 19.7972 19.7925C20.0432 19.7925 20.2739 19.7003 20.4892 19.5157L23.442 16.5629C23.8419 16.1015 23.8419 15.6402 23.442 15.1788L20.397 12.226Z" fill="white"/>
</svg>
