<svg width="385" height="63" viewBox="0 0 385 63" fill="none" xmlns="http://www.w3.org/2000/svg">
<path d="M260.257 4.444C260.257 3.86032 260.142 3.28234 259.919 2.7431C259.695 2.20387 259.368 1.71395 258.955 1.30127C258.542 0.888593 258.052 0.561255 257.513 0.337982C256.974 0.114709 256.396 -0.000131228 255.812 1.12532e-07H128.635C128.051 -0.000131228 127.473 0.114709 126.934 0.337982C126.395 0.561255 125.905 0.888593 125.492 1.30127C125.079 1.71395 124.752 2.20387 124.528 2.7431C124.305 3.28234 124.19 3.86032 124.19 4.444V33.831H260.257V4.444Z" fill="url(#paint0_linear_129_61)"/>
<path d="M381.992 56.84C383.529 57.5493 384.227 59.7193 384.43 62.5H0.0712891C0.279158 59.7571 0.965659 57.6013 2.45584 56.84C80.6428 16.871 309.272 23.277 381.992 56.84Z" fill="url(#paint1_linear_129_61)"/>
<path d="M172.514 24.1709H170.832L168.813 20.7898C168.628 20.4758 168.449 20.2095 168.275 19.9908C168.101 19.7665 167.922 19.5843 167.737 19.4441C167.557 19.3039 167.361 19.203 167.148 19.1413C166.941 19.074 166.705 19.0404 166.441 19.0404H165.281V24.1709H163.868V12.11H167.468C167.995 12.11 168.48 12.1773 168.923 12.3119C169.371 12.4409 169.758 12.6399 170.083 12.909C170.414 13.1782 170.672 13.5146 170.857 13.9183C171.042 14.3164 171.135 14.7846 171.135 15.3229C171.135 15.7434 171.07 16.1303 170.941 16.4836C170.818 16.8312 170.638 17.1424 170.403 17.4172C170.173 17.6919 169.893 17.9274 169.562 18.1236C169.237 18.3143 168.869 18.4629 168.46 18.5694V18.6031C168.662 18.6928 168.836 18.7965 168.981 18.9142C169.133 19.0264 169.276 19.161 169.41 19.318C169.545 19.475 169.677 19.6544 169.806 19.8562C169.94 20.0525 170.089 20.2824 170.252 20.5459L172.514 24.1709ZM165.281 13.3885V17.762H167.198C167.552 17.762 167.877 17.7087 168.174 17.6022C168.477 17.4957 168.738 17.3443 168.956 17.148C169.175 16.9462 169.346 16.7022 169.469 16.4163C169.593 16.1247 169.654 15.7995 169.654 15.4406C169.654 14.7958 169.444 14.294 169.024 13.9351C168.609 13.5707 168.006 13.3885 167.215 13.3885H165.281ZM178.872 24.3728C177.162 24.3728 175.791 23.8092 174.76 22.6822C173.734 21.5552 173.22 20.0889 173.22 18.2834C173.22 16.3434 173.745 14.7958 174.793 13.6408C175.842 12.4857 177.269 11.9082 179.074 11.9082C180.74 11.9082 182.08 12.4689 183.095 13.5903C184.115 14.7117 184.625 16.178 184.625 17.9891C184.625 19.9572 184.104 21.5131 183.061 22.657C182.018 23.8008 180.622 24.3728 178.872 24.3728ZM178.973 13.1866C177.706 13.1866 176.677 13.6436 175.887 14.5575C175.096 15.4715 174.701 16.6714 174.701 18.1573C174.701 19.6432 175.085 20.8403 175.853 21.7486C176.627 22.6514 177.633 23.1027 178.872 23.1027C180.196 23.1027 181.239 22.671 182.001 21.8075C182.764 20.944 183.145 19.7357 183.145 18.1825C183.145 16.5901 182.775 15.3593 182.035 14.4902C181.295 13.6211 180.274 13.1866 178.973 13.1866ZM195.82 19.2927C195.82 22.6794 194.292 24.3728 191.236 24.3728C188.309 24.3728 186.846 22.7439 186.846 19.4862V12.11H188.259V19.3937C188.259 21.8664 189.302 23.1027 191.387 23.1027C193.4 23.1027 194.407 21.9084 194.407 19.5198V12.11H195.82V19.2927ZM208.562 24.1709H206.829L200.622 14.5575C200.465 14.3164 200.336 14.0641 200.235 13.8006H200.185C200.23 14.0585 200.252 14.6108 200.252 15.4575V24.1709H198.839V12.11H200.673L206.712 21.572C206.964 21.9645 207.127 22.2336 207.199 22.3794H207.233C207.177 22.0318 207.149 21.4402 207.149 20.6048V12.11H208.562V24.1709ZM211.724 24.1709V12.11H215.055C219.305 12.11 221.43 14.0697 221.43 17.9891C221.43 19.8506 220.839 21.3477 219.656 22.4804C218.478 23.6074 216.9 24.1709 214.92 24.1709H211.724ZM213.137 13.3885V22.8925H214.937C216.518 22.8925 217.749 22.4691 218.63 21.6225C219.51 20.7758 219.95 19.5759 219.95 18.0227C219.95 14.9332 218.307 13.3885 215.021 13.3885H213.137Z" fill="white"/>
<defs>
<linearGradient id="paint0_linear_129_61" x1="192.223" y1="-0.405972" x2="192.223" y2="33.6618" gradientUnits="userSpaceOnUse">
<stop stop-color="#F47B20"/>
<stop offset="0.015" stop-color="#F47D1E"/>
<stop offset="0.172" stop-color="#F99014"/>
<stop offset="0.334" stop-color="#FC9B0E"/>
<stop offset="0.508" stop-color="#FE9F0D"/>
<stop offset="0.523" stop-color="#FD9C0E"/>
<stop offset="0.675" stop-color="#F88918"/>
<stop offset="0.832" stop-color="#F57E1E"/>
<stop offset="1" stop-color="#F47B20"/>
</linearGradient>
<linearGradient id="paint1_linear_129_61" x1="192.248" y1="33.1471" x2="192.248" y2="77.2572" gradientUnits="userSpaceOnUse">
<stop stop-color="#4D9CFF"/>
<stop offset="0.27" stop-color="#4380CE"/>
<stop offset="0.609" stop-color="#396297"/>
<stop offset="0.863" stop-color="#334F75"/>
<stop offset="1" stop-color="#314869"/>
</linearGradient>
</defs>
</svg>
