<svg width="64" height="64" viewBox="0 0 64 64" fill="none" xmlns="http://www.w3.org/2000/svg">
<path d="M35.464 8.39465L58.488 48.272C58.839 48.8801 59.0239 49.5698 59.0239 50.272C59.0239 50.9741 58.8391 51.6639 58.488 52.2719C58.1369 52.88 57.632 53.385 57.0239 53.736C56.4159 54.0871 55.7261 54.272 55.024 54.272H8.97597C8.27383 54.272 7.58407 54.0871 6.97601 53.736C6.36795 53.385 5.86301 52.88 5.51195 52.2719C5.16089 51.6639 4.97607 50.9741 4.97607 50.272C4.97608 49.5698 5.1609 48.8801 5.51197 48.272L28.536 8.39465C30.0746 5.72799 33.9226 5.72799 35.464 8.39465ZM32 13.0613L11.2853 48.9387H52.7146L32 13.0613ZM32 40C32.7072 40 33.3855 40.2809 33.8856 40.781C34.3857 41.2811 34.6666 41.9594 34.6666 42.6667C34.6666 43.3739 34.3857 44.0522 33.8856 44.5523C33.3855 45.0524 32.7072 45.3333 32 45.3333C31.2927 45.3333 30.6145 45.0524 30.1144 44.5523C29.6143 44.0522 29.3333 43.3739 29.3333 42.6667C29.3333 41.9594 29.6143 41.2811 30.1144 40.781C30.6145 40.2809 31.2927 40 32 40ZM32 21.3333C32.7072 21.3333 33.3855 21.6143 33.8856 22.1144C34.3857 22.6145 34.6666 23.2927 34.6666 24V34.6667C34.6666 35.3739 34.3857 36.0522 33.8856 36.5523C33.3855 37.0524 32.7072 37.3333 32 37.3333C31.2927 37.3333 30.6145 37.0524 30.1144 36.5523C29.6143 36.0522 29.3333 35.3739 29.3333 34.6667V24C29.3333 23.2927 29.6143 22.6145 30.1144 22.1144C30.6145 21.6143 31.2927 21.3333 32 21.3333Z" fill="#D470FF"/>
</svg>
